<?xml version="1.0" standalone="no"?>
<!DOCTYPE svg PUBLIC "-//W3C//DTD SVG 20010904//EN"
 "http://www.w3.org/TR/2001/REC-SVG-20010904/DTD/svg10.dtd">
<svg version="1.0" xmlns="http://www.w3.org/2000/svg"
 width="96.000000pt" height="96.000000pt" viewBox="0 0 96.000000 96.000000"
 preserveAspectRatio="xMidYMid meet">
<metadata>
Created by potrace 1.11, written by Peter Selinger 2001-2013
</metadata>
<g transform="translate(0.000000,96.000000) scale(0.100000,-0.100000)"
fill="#000000" stroke="none">
<path d="M308 855 c-9 -21 -9 -31 0 -46 7 -11 10 -24 6 -30 -3 -5 0 -17 7 -25
18 -22 43 18 33 54 -4 15 -6 32 -5 38 0 6 -5 17 -14 24 -12 10 -17 7 -27 -15z"/>
<path d="M390 860 c-7 -13 -9 -33 -4 -48 4 -15 6 -31 5 -36 -1 -4 4 -14 10
-22 18 -22 42 17 32 53 -4 15 -6 33 -5 39 1 6 -4 17 -12 23 -12 10 -17 8 -26
-9z"/>
<path d="M470 860 c-7 -13 -9 -33 -4 -48 4 -15 8 -34 8 -42 1 -8 9 -16 18 -18
21 -4 35 42 19 62 -6 7 -9 20 -6 28 3 8 -1 20 -9 27 -12 10 -17 8 -26 -9z"/>
<path d="M272 702 c-85 -31 -114 -68 -72 -94 23 -15 29 -78 7 -78 -8 0 -32
-13 -54 -29 -63 -45 -74 -87 -71 -256 l3 -140 26 -3 c17 -2 29 -11 32 -23 7
-27 67 -27 74 1 5 19 14 20 203 20 189 0 198 -1 203 -20 7 -28 67 -28 74 -1 3
12 15 21 32 23 l26 3 3 148 c1 87 7 147 12 147 6 0 10 -4 10 -10 0 -5 23 -10
50 -10 48 0 50 1 50 28 0 15 -5 33 -12 40 -14 14 -88 16 -88 2 0 -22 -37 -8
-62 24 -15 19 -44 40 -63 47 -29 11 -35 18 -35 42 0 18 9 36 23 47 29 25 16
47 -46 78 -66 34 -248 41 -325 14z"/>
</g>
</svg>
